<svg width="35" height="35" viewBox="0 0 35 35" fill="none" xmlns="http://www.w3.org/2000/svg">
<path d="M32.6512 2.61543C32.6387 2.55497 32.6092 2.49933 32.5663 2.45501C32.5233 2.4107 32.4686 2.37956 32.4085 2.36524C28.4047 1.38633 19.1536 4.87471 14.1415 9.88477C13.2476 10.7715 12.4326 11.7344 11.7059 12.7627C10.1603 12.626 8.61466 12.7401 7.29737 13.3144C3.58067 14.9502 2.49855 19.2186 2.19708 21.0547C2.17998 21.1552 2.18643 21.2583 2.21592 21.3559C2.24542 21.4535 2.29715 21.5429 2.36704 21.6171C2.43694 21.6913 2.52311 21.7483 2.61876 21.7835C2.7144 21.8188 2.81693 21.8314 2.91827 21.8203L8.88673 21.162C8.89099 21.612 8.91814 22.0615 8.96808 22.5087C8.99811 22.8193 9.13597 23.1095 9.35773 23.329L11.669 25.6348C11.8887 25.8562 12.1788 25.994 12.4893 26.0244C12.934 26.0742 13.381 26.1013 13.8284 26.1058L13.1735 32.0667C13.1626 32.168 13.1753 32.2705 13.2106 32.3661C13.2459 32.4616 13.3029 32.5477 13.3771 32.6176C13.4513 32.6875 13.5406 32.7392 13.6381 32.7687C13.7357 32.7983 13.8387 32.8048 13.9392 32.7879C15.7719 32.4939 20.0478 31.4118 21.674 27.6951C22.2483 26.3778 22.3658 24.8397 22.2332 23.3017C23.264 22.5749 24.2294 21.7597 25.1187 20.8653C30.1465 15.8628 33.6151 6.81817 32.6512 2.61543ZM20.1025 14.8976C19.6433 14.4388 19.3306 13.8541 19.2038 13.2175C19.0771 12.581 19.1419 11.9211 19.3902 11.3214C19.6385 10.7217 20.0591 10.2091 20.5987 9.8485C21.1383 9.48785 21.7728 9.29536 22.4219 9.29536C23.0709 9.29536 23.7054 9.48785 24.2451 9.8485C24.7847 10.2091 25.2053 10.7217 25.4536 11.3214C25.7019 11.9211 25.7667 12.581 25.6399 13.2175C25.5131 13.8541 25.2004 14.4388 24.7413 14.8976C24.4369 15.2024 24.0753 15.4443 23.6773 15.6093C23.2794 15.7743 22.8527 15.8593 22.4219 15.8593C21.991 15.8593 21.5644 15.7743 21.1664 15.6093C20.7684 15.4443 20.4069 15.2024 20.1025 14.8976Z" fill="white"/>
<path d="M11.5117 27.3048C11.1371 27.6801 10.5362 27.8264 9.81299 27.9515C8.18809 28.2283 6.75322 26.8242 7.04512 25.1815C7.15654 24.5588 7.48604 23.6858 7.69111 23.4808C7.73594 23.4368 7.76577 23.3798 7.77638 23.318C7.78699 23.2561 7.77784 23.1924 7.75021 23.136C7.72259 23.0797 7.67791 23.0334 7.62251 23.0039C7.56711 22.9743 7.50381 22.963 7.4416 22.9715C6.53294 23.0827 5.68759 23.4946 5.04014 24.1418C3.43301 25.7503 3.28125 31.7188 3.28125 31.7188C3.28125 31.7188 9.25312 31.567 10.8603 29.9585C11.5094 29.3116 11.9219 28.4649 12.0312 27.555C12.0565 27.2692 11.7086 27.099 11.5117 27.3048Z" fill="white"/>
</svg>
